<?xml version="1.0" standalone="no"?><!DOCTYPE svg PUBLIC "-//W3C//DTD SVG 1.1//EN" "http://www.w3.org/Graphics/SVG/1.1/DTD/svg11.dtd"><svg t="1594006409797" class="icon" viewBox="0 0 1095 1024" version="1.1" xmlns="http://www.w3.org/2000/svg" p-id="17402" xmlns:xlink="http://www.w3.org/1999/xlink" width="213.8671875" height="200"><defs><style type="text/css"></style></defs><path d="M889.51467237 722.74795948H402.53027891a61.15845498 61.15845498 0 0 1-60.99536602-51.04692335l-57.08122471-389.29395498a58.05976026 58.05976026 0 0 1 13.69949414-46.31733633 62.6262583 62.6262583 0 0 1 47.29587188-21.36468691h600.82066494a61.97390156 61.97390156 0 0 1 47.13278291 21.36468691 58.05976026 58.05976026 0 0 1 13.69949414 46.31733633l-56.75504678 389.13086514a60.99536602 60.99536602 0 0 1-60.83227704 51.21001319zM345.4490542 247.01672217a30.1715042 30.1715042 0 0 0-22.66940039 10.11153076 25.44191719 25.44191719 0 0 0-6.03430137 20.22306329l56.75504678 389.29395409a28.37752295 28.37752295 0 0 0 29.02987969 23.48484698h487.31057226a28.21443398 28.21443398 0 0 0 28.54061192-22.9955792l56.75504678-389.29395411a24.30029268 24.30029268 0 0 0-6.0343005-20.22306328 29.68223731 29.68223731 0 0 0-22.50631142-10.11153076zM916.58748183 961.99983653a107.80197011 107.80197011 0 1 1 107.801971-107.80197012 107.96505996 107.96505996 0 0 1-107.80197099 107.80197012z m1e-8-182.82300909a75.18412792 75.18412792 0 1 0 75.18412793 75.02103897 75.18412792 75.18412792 0 0 0-75.18412793-75.02103897zM367.13991992 961.99983653a107.80197011 107.80197011 0 1 1 107.63888115-107.80197012 107.96505996 107.96505996 0 0 1-107.63888115 107.80197012z m0-182.82300909a75.18412792 75.18412792 0 1 0 75.02103809 75.02103897 75.18412792 75.18412792 0 0 0-75.02103809-75.02103897z" fill="#2c2c2c" p-id="17403"></path><path d="M312.1788544 376.99882578a16.30892109 16.30892109 0 0 1-15.33038643-13.53640518l-32.61784219-189.18348838a68.1712919 68.1712919 0 0 0-56.10269004-56.75504589L76.35185088 94.85448506a16.53724599 16.53724599 0 1 1 5.54503359-32.61784219l133.08079834 22.66940039a99.81059941 99.81059941 0 0 1 83.01240967 84.15403418l32.61784307 188.53113164a16.30892109 16.30892109 0 0 1-13.37331534 18.75525996 12.06860185 12.06860185 0 0 1-5.05576581 0.65235674z" fill="#2c2c2c" p-id="17404"></path></svg>